<svg width="25" height="25" viewBox="0 0 25 25" fill="none" xmlns="http://www.w3.org/2000/svg">
<path d="M12.4024 0.565918C5.77503 0.565918 0.402344 5.96106 0.402344 12.6162C0.402344 18.585 4.72861 23.5282 10.401 24.4854V15.1302H7.50628V11.7636H10.401V9.28121C10.401 6.40093 12.1529 4.83135 14.712 4.83135C15.9376 4.83135 16.9909 4.92306 17.2967 4.96345V7.97411L15.5218 7.97497C14.1304 7.97497 13.8621 8.6388 13.8621 9.61327V11.7619H17.1822L16.7491 15.1284H13.8621V24.5659C19.7994 23.8403 24.4023 18.7712 24.4023 12.6127C24.4023 5.96106 19.0297 0.565918 12.4024 0.565918Z" fill="#3675FC"/>
</svg>
