<svg width="25" height="25" viewBox="0 0 25 25" fill="none" xmlns="http://www.w3.org/2000/svg">
<circle cx="12.4023" cy="12.5659" r="12" fill="#151515"/>
<path d="M9.50328 5.61487C8.75847 5.65002 8.24985 5.76888 7.8052 5.9436C7.34502 6.12294 6.95497 6.3636 6.56689 6.75309C6.1788 7.14257 5.93982 7.5329 5.76174 7.99378C5.5894 8.4394 5.47264 8.94845 5.43974 9.69368C5.40684 10.4389 5.39956 10.6784 5.4032 12.5794C5.40684 14.4803 5.41524 14.7186 5.45136 15.4654C5.48692 16.21 5.60536 16.7185 5.78008 17.1633C5.9597 17.6235 6.20008 18.0134 6.58971 18.4016C6.97933 18.7899 7.36938 19.0283 7.83138 19.2066C8.27659 19.3787 8.78577 19.496 9.53086 19.5286C10.2759 19.5613 10.5158 19.5688 12.4161 19.5652C14.3165 19.5615 14.5558 19.5531 15.3024 19.5177C16.049 19.4823 16.5549 19.363 16.9998 19.1891C17.46 19.0091 17.8502 18.7691 18.2381 18.3794C18.6261 17.9896 18.8649 17.599 19.0428 17.1378C19.2153 16.6926 19.3325 16.1834 19.3648 15.4389C19.3975 14.6917 19.4052 14.4532 19.4015 12.5525C19.3979 10.6518 19.3893 10.4136 19.3539 9.66708C19.3185 8.92059 19.1999 8.41364 19.0253 7.96858C18.8454 7.50839 18.6053 7.11877 18.2159 6.73027C17.8264 6.34176 17.4355 6.10306 16.9745 5.92554C16.529 5.7532 16.0201 5.63574 15.275 5.60353C14.5299 5.57133 14.2901 5.56307 12.389 5.56671C10.4879 5.57035 10.2499 5.57847 9.50328 5.61487ZM9.58504 18.2693C8.90253 18.2396 8.53195 18.1262 8.28499 18.0313C7.95794 17.9053 7.72498 17.753 7.47886 17.5093C7.23273 17.2655 7.08153 17.0317 6.95385 16.7054C6.85795 16.4584 6.74245 16.0882 6.71053 15.4057C6.67581 14.6681 6.66853 14.4466 6.66447 12.5777C6.66041 10.7088 6.66755 10.4876 6.69989 9.74968C6.72901 9.06773 6.84311 8.69673 6.93789 8.4499C7.06389 8.12244 7.21565 7.8899 7.45996 7.64392C7.70426 7.39793 7.93736 7.24645 8.26399 7.11877C8.51067 7.02245 8.88083 6.90793 9.56306 6.87545C10.3013 6.84045 10.5225 6.83345 12.3911 6.82939C14.2597 6.82533 14.4815 6.83233 15.22 6.86481C15.9019 6.89449 16.2731 7.00747 16.5196 7.10281C16.8468 7.22881 17.0796 7.38015 17.3256 7.62488C17.5716 7.8696 17.7232 8.10186 17.8509 8.42918C17.9473 8.67517 18.0618 9.04519 18.094 9.72784C18.1292 10.4661 18.1372 10.6874 18.1405 12.5559C18.1439 14.4243 18.1373 14.6462 18.105 15.3839C18.0751 16.0664 17.962 16.4371 17.867 16.6844C17.741 17.0113 17.5891 17.2444 17.3446 17.4902C17.1002 17.7361 16.8674 17.8875 16.5406 18.0152C16.2942 18.1114 15.9236 18.2262 15.2419 18.2587C14.5037 18.2934 14.2825 18.3007 12.4132 18.3047C10.5439 18.3088 10.3234 18.3012 9.58518 18.2693H9.58504ZM15.2916 8.82469C15.2919 8.99084 15.3415 9.15317 15.434 9.29116C15.5265 9.42916 15.6579 9.5366 15.8116 9.59992C15.9652 9.66323 16.1341 9.67957 16.297 9.64686C16.4599 9.61415 16.6094 9.53387 16.7267 9.41617C16.844 9.29847 16.9237 9.14864 16.9558 8.98562C16.9879 8.8226 16.971 8.65372 16.9071 8.50034C16.8432 8.34696 16.7353 8.21597 16.597 8.12393C16.4586 8.0319 16.2961 7.98295 16.13 7.98328C15.9072 7.98373 15.6938 8.07261 15.5366 8.2304C15.3794 8.38819 15.2913 8.60195 15.2916 8.82469ZM8.80817 12.5729C8.81209 14.5582 10.4243 16.1638 12.4091 16.1601C14.394 16.1563 16.0007 14.5442 15.997 12.5589C15.9932 10.5737 14.3805 8.96763 12.3954 8.97155C10.4103 8.97547 8.80439 10.588 8.80817 12.5729ZM10.069 12.5704C10.0681 12.1089 10.2041 11.6575 10.4597 11.2733C10.7153 10.8891 11.0792 10.5893 11.5052 10.4118C11.9312 10.2343 12.4003 10.1872 12.8531 10.2763C13.3059 10.3655 13.7221 10.5869 14.0491 10.9126C14.3761 11.2383 14.5992 11.6536 14.6901 12.1061C14.781 12.5585 14.7357 13.0278 14.56 13.4545C14.3842 13.8812 14.0859 14.2462 13.7026 14.5034C13.3194 14.7606 12.8686 14.8983 12.407 14.8992C12.1006 14.8999 11.797 14.8401 11.5137 14.7234C11.2303 14.6067 10.9728 14.4354 10.7556 14.2191C10.5385 14.0029 10.3661 13.746 10.2483 13.4631C10.1305 13.1802 10.0696 12.8769 10.069 12.5704Z" fill="white"/>
</svg>
