<svg width="25" height="25" viewBox="0 0 25 25" fill="none" xmlns="http://www.w3.org/2000/svg">
<g clip-path="url(#clip0_1878_3039)">
<path d="M12.4023 0.565918C5.77491 0.565918 0.402344 5.93848 0.402344 12.5659C0.402344 19.1934 5.77491 24.5659 12.4023 24.5659C19.0298 24.5659 24.4023 19.1934 24.4023 12.5659C24.4023 5.93848 19.0298 0.565918 12.4023 0.565918ZM7.90606 20.6906H4.53255V9.83642H7.90606V20.6906ZM6.22004 8.35272C5.13875 8.35272 4.26346 7.4762 4.26346 6.39638C4.2637 5.31755 5.13875 4.44103 6.22004 4.44103C7.29838 4.44103 8.17491 5.31755 8.17491 6.39638C8.17491 7.47644 7.29814 8.35272 6.22004 8.35272ZM20.541 20.6906H17.1702V15.412C17.1702 14.1532 17.1469 12.5342 15.4166 12.5342C13.6621 12.5342 13.3923 13.9053 13.3923 15.3209V20.6903H10.0217V9.83642H13.2573V11.3196H13.3027C13.7532 10.4662 14.8532 9.56659 16.4945 9.56659C19.9105 9.56659 20.541 11.8146 20.541 14.7371V20.6906Z" fill="#0966C2"/>
</g>
<defs>
<clipPath id="clip0_1878_3039">
<rect width="24" height="24" fill="white" transform="translate(0.402344 0.565918)"/>
</clipPath>
</defs>
</svg>
