<svg width="25" height="25" viewBox="0 0 25 25" fill="none" xmlns="http://www.w3.org/2000/svg">
<g clip-path="url(#clip0_1878_3037)">
<path d="M12.4023 0.565918C5.77594 0.565918 0.402344 5.93951 0.402344 12.5659C0.402344 19.1923 5.77594 24.5659 12.4023 24.5659C19.0287 24.5659 24.4023 19.1923 24.4023 12.5659C24.4023 5.93951 19.0287 0.565918 12.4023 0.565918ZM17.8814 9.92224C17.8867 10.0403 17.8893 10.159 17.8893 10.2782C17.8893 13.9178 15.1189 18.1147 10.0526 18.1149H10.0527H10.0526C8.49707 18.1149 7.04962 17.659 5.83069 16.8777C6.0462 16.9031 6.26556 16.9158 6.48767 16.9158C7.7782 16.9158 8.96582 16.4756 9.90863 15.7368C8.70288 15.7144 7.68628 14.9181 7.33545 13.8237C7.50336 13.8559 7.67603 13.8735 7.85309 13.8735C8.10449 13.8735 8.34802 13.8396 8.57947 13.7764C7.31915 13.5241 6.36975 12.4103 6.36975 11.0765C6.36975 11.0641 6.36975 11.0529 6.37012 11.0414C6.74127 11.2477 7.16571 11.3719 7.61761 11.3858C6.87805 10.8923 6.39191 10.0488 6.39191 9.09314C6.39191 8.5885 6.52832 8.11572 6.76489 7.70868C8.12317 9.37531 10.1531 10.4714 12.4423 10.5865C12.395 10.3848 12.3707 10.1746 12.3707 9.9585C12.3707 8.43799 13.6042 7.20441 15.1253 7.20441C15.9176 7.20441 16.6332 7.53931 17.1358 8.07471C17.7633 7.95093 18.3525 7.72168 18.8848 7.40619C18.6788 8.04907 18.2423 8.5885 17.6736 8.92963C18.2308 8.86298 18.7618 8.71521 19.2552 8.49585C18.8867 9.04828 18.4192 9.53351 17.8814 9.92224Z" fill="#1D9BF0"/>
</g>
<defs>
<clipPath id="clip0_1878_3037">
<rect width="24" height="24" fill="white" transform="translate(0.402344 0.565918)"/>
</clipPath>
</defs>
</svg>
