<svg version="1.2" xmlns="http://www.w3.org/2000/svg" viewBox="0 0 121 97" width="32">
	<title>cloudinary-logo-svg</title>
	<style>
		.s0 { fill: #3448c5 } 
	</style>
	<g id="Layer_2">
		<g id="Layer_1-2">
			<path id="Layer" class="s0" d="m160.5 30.4q2 0 3.9 0.5 1.9 0.4 3.7 1.3 1.8 0.9 3.3 2.1 1.5 1.3 2.7 2.8 0.1 0.1 0.2 0.2 0.1 0.1 0.3 0.1 0.1 0 0.2 0 0.2-0.1 0.3-0.2l5.7-4.5q0.1-0.1 0.2-0.2 0-0.2 0.1-0.3 0-0.1-0.1-0.3 0-0.1-0.1-0.2-1.8-2.4-4.1-4.3-2.3-1.9-5-3.2-2.7-1.3-5.6-2-2.9-0.7-5.9-0.7c-14.9 0-27 12.9-27 28.7 0 15.8 12.1 28.6 27 28.6q3 0 5.9-0.6 2.9-0.7 5.6-2 2.7-1.3 5-3.2 2.3-1.9 4.1-4.3 0.1-0.1 0.1-0.2 0.1-0.2 0.1-0.3-0.1-0.1-0.1-0.3-0.1-0.1-0.2-0.2l-5.7-4.5q-0.1-0.1-0.3-0.1-0.1 0-0.2 0-0.2 0-0.3 0.1-0.1 0-0.2 0.1-1.2 1.6-2.7 2.8-1.6 1.3-3.3 2.1-1.8 0.9-3.7 1.3-1.9 0.5-3.9 0.5c-10.2 0-18.1-8.7-18.1-19.8 0-11.1 7.9-19.8 18.1-19.8z"/>
			<path id="Layer" class="s0" d="m188.3 19.9h7.1q0.2 0 0.3 0.1 0.1 0 0.2 0.1 0.1 0.1 0.2 0.2 0 0.2 0 0.3v56.8q0 0.1 0 0.3-0.1 0.1-0.2 0.2-0.1 0.1-0.2 0.1-0.1 0.1-0.3 0.1h-7.1q-0.2 0-0.3-0.1-0.1 0-0.2-0.1-0.1-0.1-0.2-0.2 0-0.2 0-0.3v-56.8q0-0.1 0-0.3 0.1-0.1 0.2-0.2 0.1-0.1 0.2-0.1 0.1-0.1 0.3-0.1z"/>
			<path id="Layer" fill-rule="evenodd" class="s0" d="m239.7 59.1c0 11.3-8.3 19.8-19.2 19.8-10.8 0-19.1-8.5-19.1-19.8 0.1-12.8 9.6-19.6 19.1-19.6 11 0 19.2 8.3 19.2 19.6zm-19.2-11.2c-5.9 0-10.4 4.7-10.4 11.2 0 6.5 4.4 11.5 10.4 11.5 6 0 10.6-5 10.6-11.5 0-6.4-4.6-11.2-10.6-11.2z"/>
			<path id="Layer" class="s0" d="m278.3 40.4h-7.2q-0.1 0-0.2 0-0.2 0.1-0.3 0.2-0.1 0.1-0.1 0.2-0.1 0.1-0.1 0.3v19c0 7.4-5.1 10-9.5 10-3.9 0-7.8-2.9-7.8-9.5v-19.5q0-0.2 0-0.3-0.1-0.1-0.2-0.2-0.1-0.1-0.2-0.2-0.1 0-0.3 0h-7.1q-0.2 0-0.3 0-0.1 0.1-0.2 0.2-0.1 0.1-0.2 0.2 0 0.1 0 0.3v20.5c0 11.2 5.1 17.4 14.3 17.4 3.4 0 8.8-1.9 10.8-6.2l0.7 0.2v4.4q0 0.1 0.1 0.3 0 0.1 0.1 0.2 0.1 0.1 0.3 0.2 0.1 0 0.2 0h7.2q0.1 0 0.3 0 0.1-0.1 0.2-0.2 0.1-0.1 0.2-0.2 0-0.2 0-0.3v-36.3q0-0.2 0-0.3-0.1-0.1-0.2-0.2-0.1-0.1-0.2-0.2-0.2 0-0.3 0z"/>
			<path id="Layer" fill-rule="evenodd" class="s0" d="m322.5 20q0.2 0 0.3 0.1 0.1 0.1 0.1 0.2 0.1 0.2 0.1 0.3v56.8q0 0.1-0.1 0.3 0 0.1-0.1 0.2-0.1 0.1-0.3 0.2-0.1 0-0.2 0h-7.2q-0.1 0-0.3 0-0.1-0.1-0.2-0.2-0.1-0.1-0.1-0.2-0.1-0.2-0.1-0.3v-5.1l-0.4 0.7c-2.7 4.4-8.1 5.9-11.9 5.9-10.1 0-17.7-8.5-17.7-19.7 0-12.9 8.9-19.7 17.6-19.7 5.1 0 9.8 2.3 12 5.8l0.4 0.7v-25.4q0-0.1 0.1-0.3 0-0.1 0.1-0.2 0.1-0.1 0.2-0.1 0.2-0.1 0.3-0.1h7.2q0.1 0 0.2 0.1zm-8.3 39.1c0.1-1.4-0.2-2.8-0.7-4.2-0.5-1.3-1.3-2.6-2.3-3.6-1-1-2.2-1.9-3.5-2.4-1.3-0.6-2.7-0.9-4.2-1-5.8 0-10.4 4.9-10.4 11.2 0 6.4 4.6 11.4 10.4 11.4 1.5-0.1 2.9-0.4 4.2-1 1.4-0.6 2.6-1.4 3.6-2.5 1-1 1.7-2.3 2.3-3.6 0.5-1.4 0.7-2.8 0.7-4.3z"/>
			<path id="Layer" class="s0" d="m333 40.4h7.2q0.1 0 0.2 0 0.2 0.1 0.3 0.2 0.1 0.1 0.1 0.2 0.1 0.1 0.1 0.3v36.3q0 0.1-0.1 0.3 0 0.1-0.1 0.2-0.1 0.1-0.3 0.1-0.1 0.1-0.2 0.1h-7.2q-0.1 0-0.3-0.1-0.1 0-0.2-0.1-0.1-0.1-0.2-0.2 0-0.2 0-0.3v-36.3q0-0.2 0-0.3 0.1-0.1 0.2-0.2 0.1-0.1 0.2-0.2 0.2 0 0.3 0z"/>
			<path id="Layer" class="s0" d="m336.6 21.1q-1.1-0.1-2.2 0.3-1 0.5-1.8 1.2-0.8 0.8-1.2 1.9-0.5 1-0.5 2.1 0 1.2 0.5 2.2 0.4 1 1.2 1.8 0.8 0.8 1.9 1.2 1 0.4 2.1 0.4 1.1 0 2.2-0.4 1-0.4 1.8-1.2 0.8-0.8 1.2-1.8 0.4-1.1 0.4-2.2 0-1.1-0.4-2.1-0.4-1.1-1.2-1.9-0.8-0.7-1.8-1.2-1.1-0.4-2.2-0.3z"/>
			<path id="Layer" class="s0" d="m370.4 39.5c-3.2 0-8.8 1.7-10.9 6.2l-0.7-0.1v-4.5q0-0.2 0-0.3-0.1-0.1-0.2-0.2-0.1-0.1-0.2-0.2-0.2 0-0.3 0h-7.2q-0.1 0-0.2 0-0.2 0.1-0.3 0.2-0.1 0.1-0.1 0.2-0.1 0.1-0.1 0.3v36.3q0 0.1 0.1 0.3 0 0.1 0.1 0.2 0.1 0.1 0.3 0.2 0.1 0 0.2 0h7.2q0.1 0 0.3 0 0.1-0.1 0.2-0.2 0.1-0.1 0.2-0.2 0-0.2 0-0.3v-19c0-7.4 5.1-10 9.5-10 3.9 0 7.8 2.9 7.8 9.4v19.6q0 0.1 0.1 0.3 0 0.1 0.1 0.2 0.1 0.1 0.2 0.2 0.2 0 0.3 0h7.2q0.1 0 0.3 0 0.1-0.1 0.2-0.2 0.1-0.1 0.2-0.2 0-0.2 0-0.3v-20.5c0-11.2-5.1-17.4-14.3-17.4z"/>
			<path id="Layer" fill-rule="evenodd" class="s0" d="m427.7 40.4q0.2 0.1 0.2 0.2 0.1 0.1 0.2 0.2 0 0.1 0 0.3v36.3q0 0.1 0 0.3-0.1 0.1-0.2 0.2-0.1 0.1-0.2 0.2-0.1 0-0.3 0h-7.1q-0.2 0-0.3 0-0.1-0.1-0.2-0.2-0.1-0.1-0.2-0.2 0-0.2 0-0.3v-5l-0.5 0.7c-2.6 4.3-8 5.9-11.8 5.9-10.1 0-17.7-8.5-17.7-19.8 0-12.9 8.8-19.6 17.6-19.6 5.1 0 9.8 2.3 12 5.8l0.4 0.7v-5q0-0.2 0.1-0.3 0-0.1 0.1-0.2 0.1-0.1 0.2-0.2 0.2 0 0.3 0h7.2q0.1 0 0.2 0zm-8.2 18.7c0-1.4-0.3-2.9-0.8-4.2-0.5-1.3-1.3-2.6-2.3-3.6-1-1-2.2-1.9-3.5-2.5-1.3-0.5-2.8-0.8-4.2-0.9-5.9 0-10.4 4.9-10.4 11.2 0 6.4 4.5 11.4 10.4 11.4 1.5 0 2.9-0.4 4.2-1 1.4-0.5 2.6-1.4 3.6-2.4 1-1.1 1.8-2.3 2.3-3.7 0.5-1.4 0.7-2.8 0.7-4.3z"/>
			<path id="Layer" class="s0" d="m460.1 40.5q-0.6-0.2-1.2-0.4-0.6-0.2-1.3-0.3-0.6-0.2-1.3-0.2-0.6-0.1-1.3-0.1c-4.8 0-8.2 2.9-10 8.3l-0.6-0.1v-6.6q0-0.2-0.1-0.3 0-0.1-0.1-0.2-0.1-0.1-0.3-0.2-0.1 0-0.2 0h-7.2q-0.1 0-0.3 0-0.1 0.1-0.2 0.2-0.1 0.1-0.2 0.2 0 0.1 0 0.3v36.3q0 0.1 0 0.3 0.1 0.1 0.2 0.2 0.1 0.1 0.2 0.2 0.2 0 0.3 0h7.2q0.2 0 0.3 0 0.1-0.1 0.2-0.2 0.1-0.1 0.2-0.2 0-0.2 0-0.3v-12.4c0-14.8 6-17 9.5-17q0.5 0 1.1 0.1 0.5 0 1.1 0.1 0.5 0.1 1.1 0.3 0.5 0.2 1 0.4 0.1 0 0.2 0.1 0 0 0.1 0 0.1 0 0.2 0 0-0.1 0.1-0.1 0.1 0 0.1-0.1 0.1 0 0.2-0.1 0-0.1 0-0.1 0.1-0.1 0.1-0.2l1.4-7.1q0-0.1 0-0.2 0-0.2-0.1-0.3 0-0.1-0.1-0.2-0.1-0.1-0.3-0.1z"/>
			<path id="Layer" class="s0" d="m499.9 40.7q-0.1-0.1-0.1-0.2-0.1 0-0.2-0.1-0.1 0-0.1 0-0.1 0-0.2 0h-7.7q-0.1 0-0.2 0-0.1 0-0.2 0.1-0.1 0.1-0.2 0.1 0 0.1-0.1 0.2l-9.3 24.2-9.4-24.2q-0.1-0.1-0.1-0.2-0.1 0-0.2-0.1-0.1-0.1-0.2-0.1-0.1 0-0.2 0h-7.9q0 0-0.1 0-0.1 0-0.2 0.1-0.1 0-0.1 0.1-0.1 0-0.1 0.1-0.1 0.1-0.1 0.1 0 0.1 0 0.2-0.1 0.1 0 0.2 0 0.1 0 0.1l14 34.4-7.7 20.1q-0.1 0.2-0.1 0.4 0 0.1 0.1 0.3 0.1 0.1 0.3 0.2 0.1 0.1 0.3 0.1h7.5q0.1 0 0.2 0 0.1-0.1 0.2-0.1 0.1-0.1 0.2-0.2 0 0 0.1-0.1l21.8-55q0.1-0.1 0.1-0.2 0-0.1 0-0.2 0-0.1 0-0.2-0.1 0-0.1-0.1z"/>
			<path id="Layer" class="s0" d="m97.9 28.1c-1.3-4-3.2-7.8-5.7-11.3-2.4-3.4-5.4-6.4-8.8-8.9-3.4-2.5-7.2-4.5-11.2-5.8-4-1.4-8.2-2.1-12.5-2.1-3.6 0-7.1 0.4-10.6 1.4-3.4 0.9-6.8 2.3-9.8 4.2-3.1 1.8-5.9 4-8.4 6.6-2.5 2.6-4.6 5.5-6.3 8.7-6.3 1.1-12 4.2-16.4 8.8-4.4 4.6-7.2 10.5-8 16.8-0.8 6.3 0.5 12.7 3.5 18.3 3.1 5.5 7.9 10 13.7 12.6l0.7 0.4h0.1v-8.5c-4-2.5-7.1-6.1-8.9-10.4-1.8-4.3-2.2-9-1.2-13.5 1-4.6 3.5-8.7 6.9-11.8 3.5-3.1 7.9-5 12.5-5.5l2.1-0.2 0.9-1.9c1.3-2.8 3-5.3 5-7.6 2-2.3 4.4-4.3 6.9-5.9 2.6-1.6 5.4-2.8 8.3-3.7 3-0.8 6-1.2 9-1.2 3.7 0 7.2 0.6 10.7 1.8 3.4 1.2 6.6 3 9.4 5.2 2.8 2.3 5.3 5 7.2 8 2 3.1 3.4 6.5 4.3 10l0.7 2.8h3c2.4 0.1 4.8 0.6 7 1.5 2.2 1 4.2 2.4 5.8 4.1 1.7 1.7 3 3.7 4 5.9 0.9 2.2 1.3 4.6 1.3 7 0 7-4 12.8-11 15.7v8.1l0.5-0.2c11.2-3.6 18.1-12.7 18.1-23.6 0-3.1-0.6-6.3-1.7-9.2-1.1-2.9-2.8-5.6-4.9-8-2-2.3-4.5-4.3-7.3-5.8-2.8-1.4-5.8-2.4-8.9-2.8z"/>
			<path id="Layer" class="s0" d="m45.1 76.8l1.6 1.7q0.1 0 0.1 0.1 0 0.1 0 0.2 0 0.1-0.1 0.2-0.1 0-0.2 0h-13.1q-1.2 0-2.3-0.4-1.1-0.5-1.9-1.3-0.9-0.9-1.3-2-0.5-1.1-0.5-2.3v-25.4q0-0.1 0-0.2-0.1 0-0.1-0.1 0 0-0.1 0-0.1-0.1-0.1-0.1h-2.8q-0.1 0-0.2 0-0.1-0.1-0.1-0.2-0.1-0.1-0.1-0.2 0.1 0 0.1-0.1l11.1-11.1q0.1-0.1 0.2-0.1 0 0 0.1 0 0.1 0 0.1 0 0.1 0 0.1 0.1l11.1 11.1q0.1 0.1 0.1 0.1 0 0.1 0 0.2 0 0.1-0.1 0.2-0.1 0-0.2 0h-2.8q-0.1 0-0.2 0.1 0 0-0.1 0 0 0.1-0.1 0.1 0 0.1 0 0.2v25q0 0.6 0.1 1.1 0.2 0.6 0.4 1.2 0.2 0.5 0.5 1 0.4 0.5 0.8 0.9z"/>
			<path id="Layer" class="s0" d="m69.6 76.8l1.7 1.7q0.1 0 0.1 0.1 0 0.1 0 0.2-0.1 0.1-0.1 0.2-0.1 0-0.2 0h-13.1q-1.2 0-2.3-0.4-1.1-0.5-1.9-1.3-0.9-0.9-1.3-2-0.5-1.1-0.5-2.3v-19q0-0.1 0-0.1 0-0.1-0.1-0.1 0-0.1-0.1-0.1-0.1 0-0.1 0h-2.9q-0.1 0-0.1-0.1-0.1-0.1-0.2-0.1 0-0.1 0-0.2 0-0.1 0.1-0.2l11.1-11.1q0.1 0 0.1-0.1 0.1 0 0.2 0 0 0 0.1 0 0 0.1 0.1 0.1l11.1 11.1q0.1 0.1 0.1 0.1 0 0.1 0 0.2-0.1 0.1-0.1 0.2-0.1 0-0.2 0h-2.9q0 0-0.1 0.1-0.1 0-0.1 0-0.1 0.1-0.1 0.2 0 0 0 0.1v18.6q0 0.6 0.1 1.1 0.1 0.6 0.4 1.2 0.2 0.5 0.5 1 0.3 0.5 0.7 0.9z"/>
			<path id="Layer" class="s0" d="m94.2 76.8l1.7 1.7q0 0 0.1 0.1 0 0.1-0.1 0.2 0 0.1-0.1 0.2-0.1 0-0.2 0h-13.1q-1.2 0-2.3-0.4-1.1-0.5-1.9-1.3-0.8-0.9-1.3-2-0.5-1.1-0.5-2.3v-12.6q0-0.1 0-0.1 0-0.1-0.1-0.2 0 0-0.1 0 0 0-0.1 0h-2.8q-0.1 0-0.2-0.1-0.1-0.1-0.1-0.2 0-0.1 0-0.2 0 0 0.1-0.1l11.1-11.1q0-0.1 0.1-0.1 0.1 0 0.1 0 0.1 0 0.2 0 0 0 0.1 0.1l11.1 11.1q0.1 0.1 0.1 0.1 0 0.1 0 0.2-0.1 0.1-0.2 0.2 0 0.1-0.2 0.1l-2.8-0.1q-0.1 0.1-0.1 0.1-0.1 0-0.1 0-0.1 0.1-0.1 0.2 0 0 0 0.1v12.2q0 0.6 0.1 1.1 0.1 0.6 0.3 1.2 0.3 0.5 0.6 1 0.3 0.5 0.7 0.9z"/>
		</g>
	</g>
</svg>