<svg height="500pt" preserveAspectRatio="xMidYMid meet" viewBox="0 0 714 500" width="714pt" xmlns="http://www.w3.org/2000/svg"><g transform="matrix(.1 0 0 -.1 0 500)"><path d="m1665 4950c-55-4-108-6-119-4-10 2-16 0-12-4 9-8-117-32-144-27-11 2-18 0-15-6 4-5-2-10-12-10-10-1-25-2-33-3s-21 3-28 8c-9 7-15 3-18-11-7-25-34-34-58-21-20 11-37 2-30-17 4-10-7-15-40-20-26-4-43-11-40-17 4-6-2-5-14 1-11 6-29 8-39 4-34-12-83-55-76-67 4-8 2-7-7 1-13 12-57-1-72-22-4-5-8-6-8-2 0 5-7 2-15-7-9-8-14-21-13-28 2-6-2-12-9-13-7 0-21-7-31-15s-26-19-34-25c-9-5-35-25-57-43-32-27-41-30-41-17 0 14-3 15-15 5-8-7-13-16-10-20 8-13-53-72-66-64-7 4-9 3-6-3 8-13-29-47-42-38-6 3-9 0-6-7 5-13-43-68-62-71-4-1-7-5-6-8 1-4-9-17-23-30-15-14-23-17-19-8 4 10 0 16-9 16-8 0-17-9-19-19-4-12 0-18 11-18 10 0 1-14-26-41-23-22-39-45-36-51 4-7 2-8-4-4-7 4-12 1-12-9s-5-13-12-9c-6 4-8 3-4-4 7-12-41-88-55-85-4 2-6-3-3-11 3-7-1-20-8-27-8-8-29-47-48-86-18-40-37-73-42-73-4 0-8-9-8-20 0-13-7-20-20-20-21 0-28-26-9-32 7-2 7-12 0-31-7-18-15-25-23-21-8 5-9 2-5-10 10-25-3-66-20-66-10 0-13-6-9-16 10-25-4-65-22-62-9 2-18-5-20-16-3-14 0-17 11-13 17 7 16-17-2-52-6-11-11-43-11-71s-3-49-7-47c-28 17-21-664 7-697 7-9 10-23 6-31-3-8-2-15 3-15 13 0 34-57 25-71-4-8-3-10 4-5 12 7 17-16 14-57-1-10 3-15 8-12 13 8 13-8-1-22-13-13 6-57 20-48 9 5 44-61 44-82 0-7 4-13 9-13s6-4 3-10c-3-5-1-10 5-10s9-4 6-9 3-20 14-34c26-33 74-141 59-131-8 4-9-1-4-17 10-30 29-43 33-23 5 21 52-47 52-75 0-11 5-23 12-27 7-5 8-2 3 7-4 8 4 2 19-13 14-15 26-31 26-36s7-15 15-22 12-17 8-23c-3-5-2-7 4-4 12 8 44-25 70-72 10-19 27-35 37-37 20-3 69-45 61-52-4-4 55-53 94-77 9-5 18-13 21-16s20-14 37-24c18-11 33-25 33-33 0-7 4-11 9-8s8-2 7-12c-1-12 5-16 22-14 22 3 79-32 65-40-5-3-2-3 4-2 15 4 115-46 125-61 4-7 26-17 50-24s58-19 76-27 40-14 48-14c10 0 14-6 11-15-8-19 8-28 30-17 21 10 98-9 86-22-4-5-1-7 7-4 8 2 48-4 90-15 75-19 111-25 163-26 17-1 27-6 27-17 0-12 5-13 23-7 12 4 48 7 80 5l57-2v66c0 50 5 76 22 106 15 26 19 41 12 46-12 7-25 61-24 100 0 14-4 21-11 16-10-6-8 10 8 54 3 6 0 12-6 12s1 21 14 47c16 29 22 50 16 56s-2 21 10 41c20 32 25 51 11 42-6-4-8 38-2 54 1 3 2 9 1 13-1 5 7 20 18 35 10 15 19 32 20 37 0 6 8 18 16 28 9 10 11 17 4 17s5 15 25 34c36 34 48 54 24 40-7-4-5 2 5 13 9 11 14 22 11 26-3 3 7 12 23 21 16 8 35 22 43 31 11 13 10 15-6 9-18-7-18-6 1 16 13 15 15 21 5 16-8-4 1 7 20 25 19 17 29 28 21 24-34-19 4 19 45 45 24 15 41 30 37 34-3 3 2 6 13 6 13 0 15 3 7 8-13 8 148 77 207 89 22 4 28 8 18 14-13 9 100 13 258 9 59-1 90 3 117 16 20 10 38 21 38 26 3 15 5 23 18 61 11 32 15 36 28 26 14-13 17-83 3-104-4-5-6-21-6-35 1-20 6-25 26-25 25 0 25 1 28 94 3 96-6 125-35 114-11-5-10 4 7 38 28 54 35 62 26 28-4-20-1-29 11-33 13-5 39 16 101 80 78 81 83 89 81 125-2 21 0 41 4 45s7 24 7 44c0 40 10 56 90 141 42 44 59 56 70 49 27-17 86-11 111 11 13 12 23 26 21 31-1 5 2 7 8 3 5-3 10-1 10 5s4 9 9 5c6-3 15 5 22 17s23 31 36 41c13 11 22 22 19 24-3 3 0 15 6 27 7 11 11 24 10 29-1 4 10 8 25 8 19 1 22 3 10 6-16 4-15 7 8 19 34 18 41 18 26 0-9-11-7-15 11-19 28-8 34-2 19 16-8 11-8 22 4 48 8 19 14 29 15 22 0-12 40-6 40 6 0 4-15 11-32 16-26 8-33 15-33 35 0 30-25 110-34 110-4 0-8 11-9 24s-20 62-42 109-40 88-40 92c0 3-11 23-25 44-22 36-23 40-7 46 15 6 15 8-4 24-12 10-31 36-43 59-21 40-40 59-27 26 3-9 2-12-5-9-5 4-7 15-4 24 8 26-5 53-24 48-10-2-30 14-56 47-22 27-34 46-26 42 9-6 12-3 9 10-2 10-14 21-27 24-16 4-33 21-48 49-13 24-33 51-45 59l-23 16 19-22c11-12 17-22 14-22s-27 26-52 57c-26 31-57 62-68 67-12 6-22 20-24 30-3 20-21 36-42 36-8 0-10-5-6-12s-7-2-24 11c-25 18-32 30-32 56 0 30-6 38-43 60-24 14-58 25-76 25-39 0-133 29-126 40 6 9-44 32-55 25-15-9-40 7-40 26 0 12-11 21-37 28-47 13-63 14-43 1 13-8 13-10-1-10-9 0-19 3-23 7-3 4-17 8-29 10s-41 17-65 33c-45 31-62 36-78 21-11-11-66-2-59 9 8 14-16 23-27 12-7-7-17-8-28-2-9 5-25 9-36 8-10 0-39 2-64 5-98 11-300 15-395 7zm1145-270c8-5 11-10 5-10-5 0-17 5-25 10s-10 10-5 10c6 0 17-5 25-10zm-824-870c88-23 204-75 204-92 0-6 3-8 7-5 3 4 17-5 30-19 12-14 23-22 23-19s20-13 45-36c33-31 42-45 33-51-17-10 2-42 28-47 32-5 51-29 73-92 14-37 26-57 33-53 7 5 9 1 5-9-3-10-2-17 3-17 6 0 10-4 10-10 0-5-7-10-15-10s-15-4-15-9 7-14 15-21c12-10 15-9 15 5 0 10 3 16 6 12 3-3 8-54 10-114 2-59 6-125 9-146 3-23 2-36-4-33-5 4-12-22-16-59-4-36-11-65-16-65s-8-3-7-7c4-13-45-123-54-123-4 0-8-7-8-15 0-7-8-19-17-24-10-6-13-11-8-11 6 0-15-23-45-52-30-28-46-45-35-37 18 13 19 13 6-3-7-10-17-16-20-13-4 2-29-16-54-40-26-24-63-49-83-54-20-6-44-16-53-24-58-48-331-76-402-41-15 7-29 11-32 8-6-6-76 15-91 28-6 4-18 8-29 8-14 0-17 5-12 20 8 24-18 38-39 21-11-9-15-6-20 14-4 16-13 25-26 25-11 0-20 5-20 11 0 5-13 15-30 20-16 6-30 14-30 18s-7 16-16 27c-15 19-16 19-9-1 5-17 3-17-19 4-15 14-26 33-26 43 0 11-4 17-10 13-5-3-16 8-25 26-9 17-12 28-6 25 14-9 14 17 0 31-6 6-17 9-24 7-13-6-48 73-35 81 4 3 6 22 4 42-11 109-18 316-11 320 4 2 5 9 2 14-4 5-2 9 2 9 5 0 10 13 11 30 4 47 20 80 40 80 10 0 23 5 30 12 15 15 16 128 1 128-8 0-8 4 0 14 7 8 26 14 43 14 31-1 48 14 48 45 0 23-8 22-39-5-14-12-6-1 19 24s48 41 51 36c9-13 52-19 69-8 13 8 13 12-3 27-15 15-21 16-40 5-14-8-11-4 7 12 17 14 33 23 38 20 4-3 8-1 8 5 0 5 11 8 24 5 14-2 28 0 31 6 3 5 15 10 26 10 21 0 27 20 7 20-7 0-5 5 5 11s25 8 33 5c9-3 12-1 9 4-3 6-3 10 2 10 4 1 31 7 58 15 77 21 227 19 321-5zm-785-387c-12-20-14-14-5 12 4 9 9 14 11 11 3-2 0-13-6-23zm2268-6c-24-19-79-44-79-37 0 11 49 39 69 40 8 0 12-1 10-3zm-102-61c-9-7-17-20-17-28 0-24-28-44-42-30-9 9-19 5-42-16l-31-27 29 32c16 18 32 31 36 30 3-1 21 13 39 31 19 18 36 30 40 27 3-4-2-12-12-19zm-2214-91c-3-9-8-14-10-11-3 3-2 9 2 15 9 16 15 13 8-4zm1444-652c-3-5 24-6 60-5 42 3 63 0 59-6-3-6 0-12 6-15 7-3-36-3-96-1-104 4-153 12-90 15 25 2 23 3-11 9-38 7-38 7 18 9 32 0 56-2 54-6z"/><path d="m317 4273c-21-21 7-49 33-33 11 7 11 11 1 24-15 17-24 20-34 9z"/><path d="m4075 3689-50-19 43 5c28 4 41 2 37-5-3-5-19-10-36-10-37 0-37-18-1-54 22-23 143-96 158-96 2 0 4 32 4 72 0 89 9 86 11-5 1-37 5-67 8-67 4 0 23 11 43 25s39 25 41 25c3 0 46 24 97 54l92 53-59 9c-70 9-101 12-173 14-43 2-50 4-30 10 17 5-1 8-55 8-53 0-97-7-130-19zm108-16c-13-2-33-2-45 0-13 2-3 4 22 4s35-2 23-4z"/><path d="m4353 3703c9-2 23-2 30 0 6 3-1 5-18 5-16 0-22-2-12-5z"/><path d="m3965 3670c-3-5 1-10 7-13 16-5 48 3 48 12s-49 10-55 1z"/><path d="m4543 3673c9-2 25-2 35 0 9 3 1 5-18 5s-27-2-17-5z"/><path d="m4620 3669c-12-8-9-10 13-6 15 2 25 2 22-2-6-5 83-29 130-34 11-1 23-6 26-10 3-5 24-8 46-9 40 0 66-9 64-22-3-18 0-18 14 0 18 24 19 40 3 42-30 2-85 14-108 22-21 8-164 30-188 30-4 0-14-5-22-11z"/><path d="m4513 3650c-13-5-23-13-23-17 0-5-14-14-31-22-44-19-29-24 22-7 24 9 58 16 74 16 17 0 38 7 48 14 16 12 16 14 1 20-22 8-65 6-91-4z"/><path d="m3829 3629c-19-10-45-19-59-20-20-1-21-3-5-5 11-2 47 4 80 14 44 14 55 20 39 24-11 3-36-3-55-13z"/><path d="m3983 3585c-70-31-89-114-28-126 17-3 54-4 83-1 42 4 52 2 52-11 0-11-10-15-36-15-38 0-78-28-70-49 4-10-8-13-47-15-120-4-174 16-197 72-9 23-19 30-39 30-41 0-71 11-71 26 0 8-7 14-16 14-13 0-15-7-9-37 4-21 8-62 10-91 2-30 6-56 9-60 9-8 7-117-2-128-4-5-5-31-1-59 4-33 6-40 8-20 1 26 11 35 67 68 36 21 68 36 72 32 3-3-4-8-16-12-12-3-22-9-22-13s-14-13-30-20c-17-7-33-16-35-21-8-11 151-9 189 3 17 5 56 13 86 18s69 12 87 17c56 14 146 152 101 153-7 1-3 9 8 19 12 9 24 26 27 37 4 16 5 16 6 2 0-10 8-18 16-18 18 0 21 50 3 51-7 0-2 6 12 12 14 7 26 19 28 27 4 15-28-7-55-39-7-8-13-10-13-4s-25-3-57-20c-76-41-60-19 21 28 36 21 63 42 60 46-3 5 1 6 9 3s18-1 21 4c6 10-162 112-184 111-8 0-29-7-47-14zm57-210c0-6-85-55-96-55-5 0-1 5 9 11 9 6 14 15 11 21-5 7 0 9 13 6 11-3 28 1 38 8 20 15 25 17 25 9zm-115-65c-7-12-65-43-65-35 0 5 61 45 68 45 2 0 0-5-3-10z"/><path d="m4389 3570c-13-10-20-19-16-20 4 0 17 9 29 20 28 26 17 26-13 0z"/><path d="m4307 3514c-5-5-30-11-52-13-5-1 8-12 30-25 41-25 55-25 55 0 0 17-25 46-33 38z"/><path d="m4244 3458c2-13 7-31 11-40 4-11 3-18-4-18-6 0-11-9-11-21 0-19 1-19 16-5 8 9 19 16 24 16s15 10 21 22c10 19 8 25-17 45-36 29-46 29-40 1z"/><path d="m4377 3473c-4-3-7-11-7-17s5-5 12 2c6 6 9 14 7 17-3 3-9 2-12-2z"/><path d="m5160 3464c0-5 57-34 66-34 3 0 1 6-5 14-10 12-61 29-61 20z"/><path d="m6100 3365c-13-14-22-27-19-29 2-2 14 10 27 25 29 36 24 38-8 4z"/><path d="m6380 3376c0-2 8-10 18-17 15-13 16-12 3 4s-21 21-21 13z"/><path d="m3480 3357c0-6-3-8-6-4-6 6-34-16-34-26 0-2 17-4 37-3 42 1 59 29 23 39-11 3-20 0-20-6z"/><path d="m6159 3331c-33-33-39-45-39-80 0-23 5-52 12-64 15-30 58-66 86-73 27-7 92 4 92 15 0 5 10 11 22 14 12 4 20 9 16 12-3 3-18 1-33-5-37-14-109-3-130 20-12 13-15 33-13 76 3 56 4 59 31 62 15 2 34 14 43 27s23 26 32 28c9 3-5 5-32 6-44 1-52-3-87-38z"/><path d="m6337 3316c10-13 19-23 21-21 7 6-19 45-29 45-5 0-2-11 8-24z"/><path d="m6430 3299c0-11 5-17 10-14 6 3 10 13 10 21s-4 14-10 14c-5 0-10-9-10-21z"/><path d="m6030 3290c0-4 7-11 16-14 22-9 26-8 22 6-5 13-38 20-38 8z"/><path d="m5436 3267c3-10 9-15 12-12s0 11-7 18c-10 9-11 8-5-6z"/><path d="m6432 3250c0-14 2-19 5-12 2 6 2 18 0 25-3 6-5 1-5-13z"/><path d="m6003 3234c-8-21 33-101 67-131 46-41 68-21 30 27-11 14-20 29-20 33s-9 17-20 29c-10 12-18 24-15 28 2 3-5 11-16 18-16 10-21 10-26-4z"/><path d="m3182 3208c-17-17-15-27 6-21 10 2 19 11 19 19 0 17-9 18-25 2z"/><path d="m5508 3195c6-11 27-36 48-55l38-35-38 45c-53 62-60 68-48 45z"/><path d="m6154 3076c11-9 24-16 30-16 12 0 7 5-24 19-24 11-24 11-6-3z"/><path d="m5651 3033c7-12 15-20 18-17 3 2-3 12-13 22-17 16-18 16-5-5z"/><path d="m5430 2973c0-21-7-62-14-90-8-29-12-53-9-53s0-7-7-15c-10-12-10-15 3-15 8 0 17 5 19 10 2 6 14 7 35 1 26-7 31-7 26 5-3 8-8 14-12 14s-7 10-8 23c-3 39-25 157-29 157-2 0-4-17-4-37z"/><path d="m5691 2968c13-20 27-34 32-31 4 3 2 10-5 16-7 7-21 21-32 32-12 13-11 8 5-17z"/><path d="m3602 2895c0-16 2-22 5-12 2 9 2 23 0 30-3 6-5-1-5-18z"/><path d="m5762 2863c9-10 19-28 22-40 4-13 11-23 16-23 13 0-1 41-22 62-23 23-36 24-16 1z"/><path d="m5376 2775c-8-23-8-25 6-22 11 2 13-2 17-35 1-9 4-8 11 2 8 12 10 11 10-7 0-16-6-23-20-23-27 0-38-29-18-44 13-10 14-16 4-34-7-13-15-20-18-17s-11-1-18-10c-11-13-9-15 14-15 14 0 26 5 26 10 0 7 6 7 20 0 11-6 20-7 20-2 0 6-10 13-22 16-21 6-22 7-5 17 9 6 15 14 12 19-7 11 40 24 54 16 6-4 8-13 4-21-6-18 8-20 24-4 8 8 8 22 1 47-6 20-8 55-5 77l6 40-58 3c-47 3-60 0-65-13zm91-87c-3-8-6-5-6 6-1 11 2 17 5 13 3-3 4-12 1-19z"/><path d="m5810 2782c0-6 13-39 29-74 15-35 38-91 51-126 12-34 27-65 32-68 6-4 8 1 4 12-3 11-8 37-12 59-3 22-9 45-13 50-4 6-16 32-25 58-17 46-66 112-66 89z"/><path d="m3561 2714c0-11 3-14 6-6 3 7 2 16-1 19-3 4-6-2-5-13z"/><path d="m6875 2660c3-5 1-10-5-10s-9-4-5-9c3-5-3-11-12-13-10-3-1-6 20-9 29-4 37-2 37 11 0 17-19 40-33 40-4 0-5-4-2-10z"/><path d="m5435 2629c-10-15 3-25 16-12 7 7 7 13 1 17-6 3-14 1-17-5z"/><path d="m6643 2603c-10-10-14-15-8-11s22 12 36 17c15 6 18 10 8 10-9 1-25-7-36-16z"/><path d="m5490 2589c0-5-6-6-14-3s-17 1-21-5c-6-11 19-16 58-13 9 1 17-3 17-9 0-8-30-10-100-6-111 6-121 1-114-58 2-16-2-33-9-37-9-6-11-101-8-398 3-375 2-390-15-390-12 0-15-3-8-8 9-5 8-11-2-20-12-10-14-10-14 3 0 8-8 15-17 15-11 0-14 3-7 8 16 11 24 41 14 47-14 9-12 129 2 143 9 9 9 12-2 12-12 0-12 2-2 8 14 10 6 42-12 42-7 0-6 3 2 9 17 10 21 177 6 204-10 17-12 16-24-13-7-17-14-43-15-58s-3-43-4-62l-2-35-19 40c-10 22-19 34-19 28-1-16-31-17-31-2 0 8-4 8-15-1-8-6-19-9-25-5-5 3-10-2-10-12s-7-26-14-35c-11-15-14-7-19 62-13 170-44 120-49-80l-3-115-53-3c-47-3-54-1-59 17-7 27-33 27-33 0 0-18-5-20-65-18-36 1-65 6-65 11 0 4 4 8 8 8s8 9 8 20-4 20-9 20c-4 0-5 4-2 10 3 5 6 49 6 97 1 159-25 191-37 45-7-83-20-106-30-53-4 21-11 27-23 24s-23 6-35 29c-13 24-16 27-12 9 3-17 0-25-14-28-10-3-20-17-24-35-6-33-27-29-24 5 3 48-14 137-26 137-16 0-22-52-22-163 1-42-2-77-6-77-3 0-2-16 3-35 6-20 9-43 8-53-4-44 2-62 20-62 10 0 21-7 25-15 7-20 2-19-44 10-22 14-53 25-69 25-22 0-32 6-37 22l-7 23-8-23c-7-18-16-22-49-22-40 0-55 15-22 23 16 4 16 5 0 6-10 0-18 9-18 19 0 16-6 17-62 11-73-8-116-23-124-43-3-8-17-17-32-21-15-3-73-33-129-66-88-51-110-59-152-59s-49-3-44-16c3-9 9-12 12-7 3 4 17 8 31 9l24 1-24-16c-14-9-32-23-41-32-16-16-75-35-92-31-5 2-6-1-3-6s-25-26-62-48c-86-50-82-49-81-27 0 10 3 13 6 5 2-6 9-10 14-6 15 9 10 20-10 21-17 1-21-7-27-53-6-51-24-77-24-34 0 13-5 18-15 14-9-4-15 0-15 10 0 12-10 16-37 16-28 0-34-3-23-10 8-5 11-10 7-10s-3-9 3-20c8-15 6-21-10-30-11-6-20-18-20-28 0-13-2-14-9-3-5 7-14 10-20 7-6-4-11 0-11 8 0 9 6 16 13 16 8 0 8 3-2 9-12 8-13 14-3 35l12 26h-50c-28 0-50-4-50-10 0-5 7-7 15-4 11 5 15-1 15-26 0-17-4-29-9-25-5 3-13 0-17-6-4-7-3-9 4-5 6 3 13-2 17-13 3-11 14-21 23-23 13-3 9-8-15-21s-33-25-33-42c0-27-17-34-26-10-4 8-10 12-15 9s-9-1-9 4c0 6-9 8-20 5-12-3-19-11-17-17 7-20-43-45-82-40-33 3-33 3-6-4l30-7-47-27c-26-14-46-21-45-15 2 14-54 19-73 7-11-7-11-11-1-24 10-12 18-13 33-5 11 6 22 9 24 6 2-2-7-9-20-16-16-9-22-19-19-32 3-10 9-19 13-19s10-9 13-20 1-20-5-20c-5 0-8-6-5-12 2-7 10-13 19-13 21 0 76-67 70-85-2-9 2-7 12 5 17 20 17 20 12-5-3-14-3-19 0-12 3 6 10 10 15 6 5-3 9 1 9 8 0 10 10 13 36 10 27-3 35-1 29 8s-1 10 16 5c33-10 36-14 19-26-12-8-9-9 10-5 14 3 28 6 33 6 4 0 7 7 7 15s5 15 10 15c6 0 10-6 10-14s-4-18-10-21c-5-3-10-11-10-18 0-6 6-3 13 8 12 15 28 18 90 18 47 0 74 4 70 10-3 5 8 2 25-8 26-16 33-17 47-5 11 9 19 10 23 3 4-5 21-8 37-6 71 8 121 8 132 0 7-5 22-7 35-5 22 3 21 4-8 20-17 10-35 14-39 10-5-4-5-2-1 5 5 9 14 9 32 3 33-13 54-13 34 0-12 8-10 10 8 10 13 0 20-4 17-10-4-6 8-10 29-10 24 0 36-5 36-14 0-15 53-27 71-15 7 4 23 3 36-2 30-11 73-12 73-1 0 4 10 8 22 9 11 1 25 8 30 15 7 10 11 10 14 1 3-7 12-9 21-6 10 4 14 2 9-5-9-15 13-27 27-13s47 15 47 1c0-5 7-10 16-10 11 0 15 6 12 18-4 15 1 18 31 19 20 0 26-1 14-4-13-2-23-8-23-13 0-6 10-6 24 0 13 5 34 6 46 3 16-4 21-3 16 5s2 12 21 11c17-1 21-3 11-6-10-2-18-9-18-14 0-6 5-7 10-4 6 3 10 2 10-2 0-12 91-10 110 2 11 7 7 11-15 17-18 4-31 4-33-2s-9-10-15-10c-7 0-7 4 1 12 16 16 73 19 90 5 10-8 2-16-35-34l-48-24 43 6c23 4 42 3 42-2 0-4 9-14 20-21 18-11 20-10 20 9 0 13-4 18-12 13-8-4-8-2 1 7 10 10 15 11 18 2 3-8 12-9 29-3 13 5 23 6 22 2s2-15 6-25c11-23 36-22 36 2 0 13 10 20 31 25 46 9 61 7 53-5-4-7-1-10 7-7s13 11 11 18c-1 6 3 10 10 7 7-2 12-9 11-15-1-5 7-8 17-5 11 3 20 9 20 13s43 7 95 6 89 1 83 6c-7 4-9 11-4 15 4 4 14 0 21-11 13-17 15-17 30-2 19 19 26 20 23 4-2-7 12-12 39-12 22-1 39 2 36 6-2 5 1 8 6 8 6 0 11-4 11-10 0-5 8-10 18-11 13 0 13-2-4-9-12-5-25-13-28-18-4-7-18-6-40 0-28 9-38 8-50-5-9-8-16-19-16-23 0-5 5-3 12 4s17 8 29 2c12-7 20-6 25 2 6 9 10 5 14-11 3-15 14-25 29-28 18-2 22 0 17 13s-2 15 14 11c11-3 20-1 20 4s5 9 10 9c24 0 7-21-31-38-23-11-37-22-32-25s15-2 23 4c26 15 29 10 13-22-26-52-42-127-49-233-6-97-5-104 20-154 15-29 25-56 22-60-2-4 1-28 8-54 13-52 51-102 81-106 32-5 75-24 75-33 0-5 7-9 15-9s15-4 15-8 16-14 35-21c21-7 33-17 29-23-5-7 0-9 14-6 12 4 22 2 22-2 0-5 8-9 18-9 9 0 35-4 57-10s53-11 69-11h28l-17 26c-9 15-19 43-20 63-7 79-15 124-24 135-5 6-12 23-14 36-6 37-38 110-48 110-5 0-9 7-9 15 0 16-16 47-39 76-8 10-17 30-18 45-2 15-13 44-23 64-11 21-16 40-13 44 4 3 1 6-6 6s-11 6-8 13c2 6-5 20-15 29-11 9-19 19-19 22 4 34-3 60-20 77-12 12-21 35-22 55-2 36-13 45-20 17-4-14-5-13-6 4-1 16-6 21-16 17-24-9-18 11 13 44 25 27 33 60 11 46-5-3-9-3-9 0 0 13 57 35 66 26 6-6 25-2 49 10 22 12 63 27 90 35 56 16 237 35 245 25 3-3 17-6 31-5 24 0 25 2 17 27-6 16-14 26-18 23s-6 4-3 15 10 20 15 20 6-5 2-11c-4-7 7-4 24 6s29 22 26 27c-3 4-2 8 3 8 13 0 34 56 27 73-3 9-12 13-21 10-10-4-14-2-10 4 13 21 15 62 3 72-6 5-21 8-31 6-11-2-35-4-52-4-23-1-33-6-33-17 0-13-5-11-31 7-17 12-34 31-39 43-5 11-9 16-9 9-1-7-7-10-15-7-22 8 4 54 30 54 13 0 24 8 27 19 5 19 25 25 122 39 45 7 47 8 21 14-18 3-53-2-89-13-33-10-70-19-82-19-13 0-25-6-28-12-2-7-8-9-13-5-4 4-2 18 5 30 8 12 10 22 4 24s-8 15-5 28c2 14-2 33-9 42-8 9-14 40-15 72-1 143-4 161-20 161-8 0-12 5-9 10 4 6 10 8 15 5s10 35 12 85c2 71 0 90-11 90-9 0-11 8-7 26 5 17 3 23-4 19-6-4-10 14-10 50 0 48 3 58 20 62 22 6 29 53 8 53-7 0-5 5 4 11 15 9 18 25 17 119 0 89-3 110-15 110-11 0-13 10-9 41 4 30 0 48-14 68-19 26-51 38-51 20zm60-88c0-6-4-13-10-16-5-3-10 1-10 9 0 9 5 16 10 16 6 0 10-4 10-9zm-109-103c0-10 2-10 6 0 2 6 11 12 19 12 9 0 12-4 9-10-3-5 0-7 9-4 14 5 34-32 22-43-3-3-1-14 4-24 13-23-22-49-66-49-63 0-93 78-44 112 30 21 40 22 41 6zm116-10c-3-8-6-5-6 6-1 11 2 17 5 13 3-3 4-12 1-19zm-224 5c-16-6-17-29-3-36 6-3 5-4-2-3s-14 12-16 24c-3 16 2 22 15 21 10 0 13-3 6-6zm-3-169c0-8-4-14-9-14-6 0-9 9-8 19 1 22 17 18 17-5zm17-61c-4-3-2-12 4-20 9-10 7-13-10-13-14 0-21 6-21 20 0 12 7 20 17 20 9 0 13-3 10-7zm11-73c-1-26-5-30-27-30l-26 1 24 20c13 11 21 22 17 26-3 4-13-2-21-13-14-18-14-18-15 4 0 17 6 22 24 22 21 0 25-5 24-30zm102 0c0-5-2-10-4-10-3 0-8 5-11 10-3 6-1 10 4 10 6 0 11-4 11-10zm-3-52c-3-8-6-5-6 6-1 11 2 17 5 13 3-3 4-12 1-19zm-114-8c3-12 0-20-8-20s-11 8-8 20c3 11 7 20 8 20s5-9 8-20zm64-12c-3-8-6-5-6 6-1 11 2 17 5 13 3-3 4-12 1-19zm50-4c-3-3-12-4-19-1-8 3-5 6 6 6 11 1 17-2 13-5zm-117-90c0-17-22-14-28 4-2 7 3 12 12 12s16-7 16-16zm120-35c0-6-4-7-10-4-5 3-10 11-10 16 0 6 5 7 10 4 6-3 10-11 10-16zm-732-71c-6-17-38-19-38-2 0 8 9 14 21 14 11 0 19-5 17-12zm313 3c11 6 25 8 32 5 7-2 5-5-5-5-9-1-18-6-20-13-5-15-38-3-37 14 0 10 2 10 6 1 3-10 10-10 24-2zm452 2c-7-2-19-2-25 0-7 3-2 5 12 5s19-2 13-5zm-771-55c-7-7-12-8-12-2 0 14 12 26 19 19 2-3-1-11-7-17zm328 3c0-11 3-28 6-38s-3-6-13 10c-11 15-23 24-26 20-4-3-7-1-7 5 0 10 15 19 33 21 4 1 7-8 7-18zm497-33c-3-7-5-2-5 12s2 19 5 13c2-7 2-19 0-25zm-820-14c-3-3-12-4-19-1-8 3-5 6 6 6 11 1 17-2 13-5zm190-46c-3-8-6-5-6 6-1 11 2 17 5 13 3-3 4-12 1-19zm241-15c-10-2-28-2-40 0-13 2-5 4 17 4 22 1 32-1 23-4zm-1300-73c-1-16-5-30-9-30s-7 14-7 30c1 17 5 30 10 30 4 0 7-13 6-30zm629-2c-3-7-5-2-5 12s2 19 5 13c2-7 2-19 0-25zm240 10c-3-8-6-5-6 6-1 11 2 17 5 13 3-3 4-12 1-19zm190-15c-3-10-5-4-5 12 0 17 2 24 5 18 2-7 2-21 0-30zm337-15c-8-64-14-74-14-25 0 21-5 37-10 37-6 0-5 8 2 20 21 34 29 22 22-32zm-1264 21c0-6-4-7-10-4-5 3-10 11-10 16 0 6 5 7 10 4 6-3 10-11 10-16zm840 12c0-6-4-13-10-16-5-3-10 1-10 9 0 9 5 16 10 16 6 0 10-4 10-9zm-715-11c3-5 1-10-4-10-6 0-11 5-11 10 0 6 2 10 4 10 3 0 8-4 11-10zm128-10c3-11 1-20-4-20s-9 9-9 20 2 20 4 20 6-9 9-20zm484-57c-3-10-5-2-5 17s2 27 5 18c2-10 2-26 0-35zm-240 15c-3-8-6-5-6 6-1 11 2 17 5 13 3-3 4-12 1-19zm430 0c-3-8-6-5-6 6-1 11 2 17 5 13 3-3 4-12 1-19zm300 0c-3-8-6-5-6 6-1 11 2 17 5 13 3-3 4-12 1-19zm-1487-14c0-14-4-23-10-19-5 3-10 15-10 26 0 10 5 19 10 19 6 0 10-12 10-26zm130 6c0-11-4-20-10-20-5 0-10 9-10 20s5 20 10 20c6 0 10-9 10-20zm122-12c-9-9-12-7-12 12s3 21 12 12 9-15 0-24zm1658-58c0-5-4-10-9-10-6 0-13 5-16 10-3 6 1 10 9 10 9 0 16-4 16-10zm-2043-67c-3-10-5-4-5 12 0 17 2 24 5 18 2-7 2-21 0-30zm133 12c0-14-4-25-10-25-5 0-10 11-10 25s5 25 10 25c6 0 10-11 10-25zm127 5c1-11-2-20-8-20-5 0-9 9-9 20s4 20 8 20 8-9 9-20zm120-12c-3-8-6-5-6 6-1 11 2 17 5 13 3-3 4-12 1-19zm1269-75c-2-3-13 0-23 7-16 10-16 11 0 6 14-4 17 1 19 32l1 37 4-39c3-21 2-40-1-43zm-1766 27c0-11-4-20-10-20-5 0-10 9-10 20s5 20 10 20c6 0 10-9 10-20zm117-12c-3-7-5-2-5 12s2 19 5 13c2-7 2-19 0-25zm129 17c-4-24-16-30-16-7 0 12 4 22 9 22s8-7 7-15zm134-11c0-8-4-14-10-14-5 0-10 9-10 21 0 11 5 17 10 14 6-3 10-13 10-21zm123 11c4-8 2-17-3-20-6-4-10 3-10 14 0 25 6 27 13 6zm1764-37c-3-8-6-5-6 6-1 11 2 17 5 13 3-3 4-12 1-19zm-2397-48c0-16-4-30-10-30-5 0-10 14-10 30 0 17 5 30 10 30 6 0 10-13 10-30zm1657-17c-3-10-5-2-5 17s2 27 5 18c2-10 2-26 0-35zm-1527 12c0-14-4-25-10-25-5 0-10 11-10 25s5 25 10 25c6 0 10-11 10-25zm117-12c-3-10-5-4-5 12 0 17 2 24 5 18 2-7 2-21 0-30zm133 12c0-14-4-25-10-25-5 0-10 11-10 25s5 25 10 25c6 0 10-11 10-25zm130 0c0-14-4-25-10-25-5 0-10 11-10 25s5 25 10 25c6 0 10-11 10-25zm867-12c-3-10-5-4-5 12 0 17 2 24 5 18 2-7 2-21 0-30zm528 7c3-5 1-10-4-10-6 0-11 5-11 10 0 6 2 10 4 10 3 0 8-4 11-10zm0-61c0-11-25-15-122-16-77-2-123 1-123 7s8 11 18 11c81 7 101 6 125-3 22-9 31-8 37 2 4 7 12 10 18 6 6-3 14-2 17 4 9 15 30 7 30-11zm-528-3c-4-12-134-19-194-11-80 11-43 21 77 21 74 0 119-4 117-10zm-1696-213c13-16 12-17-3-4-17 13-22 21-14 21 2 0 10-8 17-17zm414-13c-3-5-12-10-18-10-7 0-6 4 3 10 19 12 23 12 15 0zm69 1c3-5-1-11-9-14-9-4-12-1-8 9 6 16 10 17 17 5zm82-3c5 4 2-1-5-10-15-20-36-25-25-5 6 9 5 9-8 0-16-14-28-8-28 13 0 9 8 10 29 4 16-4 33-5 37-2zm51-4c0-17-11-18-25-1-8 10-7 13 7 14 10 1 18-5 18-13zm618 6c-3-5-12-10-18-10-7 0-6 4 3 10 19 12 23 12 15 0zm-907-7c-10-2-26-2-35 0-10 3-2 5 17 5s27-2 18-5zm459 1c-3-3-12-4-19-1-8 3-5 6 6 6 11 1 17-2 13-5zm208-23c-3-2-18-4-35-3-16 0-30-4-30-9 0-6-4-7-10-4-21 13-9 25 25 25 21 0 35 5 35 13s3 7 10-3c5-8 7-16 5-19zm175 25c0-9-30-14-35-6-4 6 3 10 14 10 12 0 21-2 21-4zm-910-10c0-3-4-8-10-11-5-3-10-1-10 4 0 6 5 11 10 11 6 0 10-2 10-4zm587-18c-3-8-6-5-6 6-1 11 2 17 5 13 3-3 4-12 1-19zm713 8c0-8-51-13-56-5-3 5 9 9 25 9 17 0 31-2 31-4zm300 0c0-2-7-7-16-10-8-3-12-2-9 4 6 10 25 14 25 6zm305-46c8-13-5-13-25 0-13 8-13 10 2 10 9 0 20-4 23-10zm-47-24c-7-8-17-12-22-9-4 3-2 9 5 14 22 13 31 11 17-5zm21-592c12-19 16-32 11-29-11 7-43 65-36 65 2 0 13-16 25-36z"/><path d="m5433 2343c9-2 25-2 35 0 9 3 1 5-18 5s-27-2-17-5z"/><path d="m5380 2336c0-2 7-6 15-10 8-3 15-1 15 4 0 6-7 10-15 10s-15-2-15-4z"/><path d="m5440 2300c0-5 5-10 11-10 5 0 7 5 4 10-3 6-8 10-11 10-2 0-4-4-4-10z"/><path d="m6920 2596c0-2 7-7 16-10 8-3 12-2 9 4-6 10-25 14-25 6z"/><path d="m6560 2555c-9-10-9-15-1-15 6 0 11 5 11 11 0 5 5 7 12 3s8-3 4 4c-9 15-11 15-26-3z"/><path d="m6799 2552c11-8 11-10 0-15-8-3-4-6 9-6 28-1 25 23-4 27-14 2-16 1-5-6z"/><path d="m2413 2543c9-2 23-2 30 0 6 3-1 5-18 5-16 0-22-2-12-5z"/><path d="m2755 2531c5-16 4-21-4-17-6 4-11 1-11-8 0-8-3-22-7-31-5-16-4-15 15 1 24 20 27 41 11 64-8 12-9 10-4-9z"/><path d="m6689 2532c-13-10-32-21-41-25-31-11-70-94-74-157-3-44 0-58 9-54 21 8 39 63 33 99-6 28-3 35 13 40 17 5 19 12 14 37-6 29-5 30 16 19 18-10 26-7 58 24 31 30 33 35 16 35-11 0-31-8-44-18z"/><path d="m6477 2507c-14-21-14-29-2-63 8-21 14-68 15-104 0-36 4-70 8-77 4-6 7 28 7 75 0 97 4 121 23 141 18 19 11 45-14 49-13 2-27-6-37-21z"/><path d="m6900 2514c0-17 28-49 36-41 4 4-2 17-14 30-12 12-22 17-22 11z"/><path d="m6663 2444c-7-20 10-37 33-32 11 2 19 12 20 26 1 17-4 22-23 22-13 0-26-7-30-16z"/><path d="m3461 2434c0-11 3-14 6-6 3 7 2 16-1 19-3 4-6-2-5-13z"/><path d="m6965 2419c-4-12-2-26 4-32 8-8 11-2 11 21 0 37-6 41-15 11z"/><path d="m3406 2351c-4-7-5-15-2-18 9-9 19 4 14 18-4 11-6 11-12 0z"/><path d="m6991 2324c0-11 3-14 6-6 3 7 2 16-1 19-3 4-6-2-5-13z"/><path d="m5961 2310c0-14 4-34 9-45 8-18 9-18 9 5 0 14-4 34-9 45-8 18-9 18-9-5z"/><path d="m6966 2274c-8-20-8-24 2-24 4 0 8 9 9 20 2 24-3 26-11 4z"/><path d="m3362 2267c-12-14-12-57-1-57 7 0 21 61 15 67-2 2-8-2-14-10z"/><path d="m2683 2025c0-147 3-210 7-175 10 72 10 291 0 355-4 32-7-34-7-180z"/><path d="m5977 2213c-3-5-1-17 4-28 7-17 8-17 8 8 1 27-4 34-12 20z"/><path d="m6520 2179c0-19 55-72 70-67 6 2-7 21-30 43-25 24-40 33-40 24z"/><path d="m6873 2183c-20-7-15-23 6-23 10 0 21 7 25 15 5 15-7 18-31 8z"/><path d="m6665 2170c3-5 15-10 26-10s17 5 14 10c-3 6-15 10-26 10s-17-4-14-10z"/><path d="m5980 1999c-5-160 0-241 11-209 3 8 2 96-1 195l-6 180z"/><path d="m6790 2147c0-7 8-13 18-14s19 5 19 13-9 14-19 14-18-6-18-13z"/><path d="m7010 2149c0-5-6-7-12-3-10 5-10 4-1-6 6-7 16-9 22-6 14 9 14 26 1 26-5 0-10-5-10-11z"/><path d="m4176 2103c-3-3-6-17-6-30s-12-36-27-50c-16-15-23-23-17-20 7 4 14 0 18-8 3-8 12-15 21-15 8 0 15-4 15-10 0-5 7-10 15-10s15 7 15 15 5 15 11 15c5 0 7 5 4 10-3 6 0 10 7 10s2 7-10 16c-14 10-22 26-22 44 0 29-12 45-24 33z"/><path d="m5546 2101c-4-7-5-15-2-18 9-9 19 4 14 18-4 11-6 11-12 0z"/><path d="m6925 2090c-3-5-2-10 4-10 5 0 13 5 16 10 3 6 2 10-4 10-5 0-13-4-16-10z"/><path d="m3239 2043c-13-16-12-17 4-4s21 21 13 21c-2 0-10-8-17-17z"/><path d="m3124 1908-19-23 23 19c12 11 22 21 22 23 0 8-8 2-26-19z"/><path d="m3216 1842c7-4 14-16 17-27 4-15 5-14 6 8 1 20-4 27-16 27s-14-3-7-8z"/><path d="m3039 1823c-13-16-12-17 4-4s21 21 13 21c-2 0-10-8-17-17z"/><path d="m3182 1810c0-14 2-19 5-12 2 6 2 18 0 25-3 6-5 1-5-13z"/><path d="m3168 1763c7-3 16-2 19 1 4 3-2 6-13 5-11 0-14-3-6-6z"/><path d="m3119 1751c12-8 13-16 4-45-10-33-9-36 9-36 15 0 18 5 13 20-4 12-1 27 5 35 9 11 7 16-9 24-24 13-42 14-22 2z"/><path d="m5960 1735c0-14 5-25 10-25 6 0 10 11 10 25s-4 25-10 25c-5 0-10-11-10-25z"/><path d="m2938 1743c7-3 16-2 19 1 4 3-2 6-13 5-11 0-14-3-6-6z"/><path d="m3010 1734c0-9-5-12-12-8-6 4-8 3-5-4 9-13 44-4 51 14 3 9-2 14-14 14-11 0-20-7-20-16z"/><path d="m5651 1714c0-11 3-14 6-6 3 7 2 16-1 19-3 4-6-2-5-13z"/><path d="m5675 1720c3-5 8-10 11-10 2 0 4 5 4 10 0 6-5 10-11 10-5 0-7-4-4-10z"/><path d="m2920 1705c-8-9-8-15-2-15 12 0 26 19 19 26-2 2-10-2-17-11z"/><path d="m3570 1696c0-9 5-16 10-16 6 0 10 4 10 9 0 6-4 13-10 16-5 3-10-1-10-9z"/><path d="m3630 1696c0-9 5-16 10-16 6 0 10 4 10 9 0 6-4 13-10 16-5 3-10-1-10-9z"/><path d="m3761 1694c0-11 3-14 6-6 3 7 2 16-1 19-3 4-6-2-5-13z"/><path d="m3820 1694c0-8 5-12 10-9 6 4 8 11 5 16-9 14-15 11-15-7z"/><path d="m3010 1684c0-8 5-12 10-9 6 4 8 11 5 16-9 14-15 11-15-7z"/><path d="m3255 1690c-3-5 1-10 10-10s13 5 10 10c-3 6-8 10-10 10s-7-4-10-10z"/><path d="m3380 1690c0-5 5-10 10-10 6 0 10 5 10 10 0 6-4 10-10 10-5 0-10-4-10-10z"/><path d="m3440 1690c0-5 5-10 10-10 6 0 10 5 10 10 0 6-4 10-10 10-5 0-10-4-10-10z"/><path d="m3500 1690c0-5 5-10 10-10 6 0 10 5 10 10 0 6-4 10-10 10-5 0-10-4-10-10z"/><path d="m3690 1690c0-5 5-10 10-10 6 0 10 5 10 10 0 6-4 10-10 10-5 0-10-4-10-10z"/><path d="m5950 1687c0-12-8-17-27-17-53-1-83-5-83-12 0-5 7-8 15-8s16-7 16-15c1-8 3-19 4-25 1-5 3-22 4-37 1-22 3-25 11-13s10 11 10-7c0-31 34-24 37 8 1 15 0 17-3 7s-10-18-15-18c-6 0-8 9-4 19 9 28-4 69-23 75-10 3-5 4 11 2 15-2 27 1 27 5 0 5 5 9 10 9 6 0 10-9 10-20s-5-20-11-20c-5 0-7-4-4-10 12-19 22-10 28 27 4 20 2 43-3 52-8 14-9 14-10-2z"/><path d="m3070 1679c0-5 5-7 10-4 6 3 10 8 10 11 0 2-4 4-10 4-5 0-10-5-10-11z"/><path d="m5682 1660c0-14 2-19 5-12 2 6 2 18 0 25-3 6-5 1-5-13z"/><path d="m2825 1640c-3-6-18-7-32-4-21 6-25 4-20-9 5-14-17-33-35-29-5 1-8-7-8-19 0-11-4-17-10-14-14 8-13 2 6-45 9-22 20-38 24-35s7-10 6-28c0-19 4-31 11-30 14 3 45-71 37-91-3-8-1-23 6-33 9-16 10-15 5 7l-6 25 15-25c11-18 11-27 3-32s-6-8 5-8c16 0 18 16 18 190-1 172-6 211-25 180zm-82-95c-3-9-8-14-10-11-3 3-2 9 2 15 9 16 15 13 8-4z"/><path d="m3030 1631c-34-4-40-8-26-14 13-5 17-14 14-32-3-14 0-26 8-29 10-4 14 3 15 22l1 27 8-30c8-30 8-30 9 8 1 23 5 36 11 32 6-3 10 1 10 9 0 9-1 15-2 14-2 0-23-4-48-7z"/><path d="m3110 1619c0-18 2-19 15-9 13 11 15 5 15-49 0-35 4-61 10-61s10 15 9 33c-3 64 5 81 11 22l7-60 1 58c2 41 6 59 17 63 27 11 5 24-41 24-38 0-44-3-44-21z"/><path d="m3230 1631c0-16 18-22 23-9 3 7 6-17 6-54 1-59 3-68 20-68 15 0 19 10 24 57 3 32 11 59 17 61 27 9 5 22-40 22-27 0-50-4-50-9z"/><path d="m3360 1630c0-5 7-10 15-10 10 0 15-15 17-57 2-46 7-59 21-61 15-3 17 5 17 54 0 42 4 60 18 70 15 12 10 13-35 14-29 0-53-4-53-10zm60-50c0-16-4-30-8-30-5 0-7 14-4 30 2 17 6 30 8 30s4-13 4-30z"/><path d="m3487 1624c5-13 7-13 14-2 6 9 9 6 10-12 0-14 3-19 6-12 2 6 13 12 24 12 10 0 19 6 19 13 0 8 4 7 10-3 8-13 10-12 10 3 0 14-9 17-50 17s-48-3-43-16z"/><path d="m3623 1633c9-2 17-14 17-26 0-18 2-19 10-7 9 13 11 13 20 0 8-13 10-13 10 2 0 9 8 22 18 27 13 8 4 10-38 10-30-1-47-3-37-6z"/><path d="m5740 1634c35-7 98-9 94-2-3 5-29 7-57 7-29-1-45-3-37-5z"/><path d="m2868 1620c-1-5-1-35 0-65 4-50 6-55 28-55 17 0 24 6 24 20s-7 20-21 20c-11 0-18 4-14 10 3 5 12 7 20 3 12-4 15 4 15 33s3 35 10 24c8-13 10-12 10 3 0 13-8 17-34 17-19 0-36-4-38-10z"/><path d="m5647 1616c-3-8 1-13 11-12 12 1 17-6 16-21 0-13 3-23 8-23 4 0 8 9 8 19 0 11 5 23 10 26 6 3 10 1 10-6s3-10 6-6c4 3 4 14 0 23-5 14-9 14-23 3-13-11-17-11-20-1-6 16-20 15-26-2z"/><path d="m5800 1572c0-21 7-32 26-41 20-9 25-9 21 1-2 7-10 12-16 11-15-4-14 30 1 45 9 9 7 12-10 12-18 0-22-6-22-28z"/><path d="m2637 1524c-27-14-47-28-44-31s30 9 59 26c64 37 53 40-15 5z"/><path d="m3510 1541c0-4 11-6 25-3 14 2 25 6 25 8s-11 4-25 4-25-4-25-9z"/><path d="m3020 1520c0-11 4-20 9-20 6 0 9 9 8 20s-5 20-9 20-8-9-8-20z"/><path d="m3052 1520c0-14 2-19 5-12 2 6 2 18 0 25-3 6-5 1-5-13z"/><path d="m3071 1524c0-11 3-14 6-6 3 7 2 16-1 19-3 4-6-2-5-13z"/><path d="m5688 1523c7-3 16-2 19 1 4 3-2 6-13 5-11 0-14-3-6-6z"/><path d="m5793 1488c-35-5-63-13-63-18 0-4 16-4 35 0 32 7 35 6 35-14 1-21 1-21 16-1 12 16 16 17 23 6s10-10 14 5c4 17 5 17 6-2 1-16-6-23-29-27-26-6-30-11-30-41 0-21 6-36 15-40 13-5 15 0 9 31-5 26-4 34 5 29 6-4 11-15 11-24 1-30 23 18 30 66 5 28 3 42-4 41-6-1-39-6-73-11z"/><path d="m2893 1483c-7-2-13-11-13-19 0-12 4-12 20-2 31 20 26 35-7 21z"/><path d="m2992 1470c0-14 2-19 5-12 2 6 2 18 0 25-3 6-5 1-5-13z"/><path d="m3010 1470c0-11 5-20 10-20 6 0 10 9 10 20s-4 20-10 20c-5 0-10-9-10-20z"/><path d="m3040 1476c0-22 20-30 21-9 0 16 1 16 8-1 7-19 8-19 13 2 5 18 2 22-18 22-14 0-24-6-24-14z"/><path d="m3110 1473c0-7 12-13 28-14 15 0 34-2 44-4 9-2 18 5 21 16 5 17 0 19-44 18-33-2-49-6-49-16z"/><path d="m3238 1468c5-20 7-20 10-5 3 17 5 17 16 2 12-17 45-11 47 9 0 6 4 2 9-9 8-19 9-19 9 3 1 15-5 22-18 22-11 0-22-6-24-12-4-10-6-10-6 0-1 6-12 12-25 12-20 0-23-4-18-22z"/><path d="m3360 1474c0-7 9-14 20-17s20-1 20 4c0 4 7 6 15 3 9-4 15 0 15 9 0 10-10 14-35 13-19 0-35-6-35-12z"/><path d="m3440 1470c0-11 2-20 4-20s6 9 9 20 1 20-4 20-9-9-9-20z"/><path d="m2490 1457c-15-7-26-20-25-32 0-17 7-20 40-20 46 0 63 28 24 40-17 6-19 9-8 16 20 13-2 10-31-4z"/><path d="m2870 1423c0-9 8-13 22-11 31 4 34 26 3 26-15 0-25-6-25-15z"/><path d="m3015 1385v-55l32 2c29 2 30 4 22 27-6 13-7 32-3 40 15 35 12 41-19 41h-32z"/><path d="m3138 1385c-3-54-2-55 24-55 25 0 26 3 30 55 3 54 2 55-24 55-25 0-26-3-30-55z"/><path d="m2349 1399c-18-15-33-19-57-15-18 2-30 1-27-4 6-9-56-30-88-30-11 0-17-6-14-12 6-20 193-14 226 6 6 4 9 20 7 34-2 15-5 30-5 35-2 13-17 8-42-14z"/><path d="m5872 1408c-16-20-43-90-37-96 12-12 44 35 48 71 5 41 4 43-11 25z"/><path d="m3110 1366c0-20 2-36 4-36 8 0 12 61 4 66-4 3-8-11-8-30z"/><path d="m5661 1384c0-11 3-14 6-6 3 7 2 16-1 19-3 4-6-2-5-13z"/><path d="m2867 1373c-4-3-7-15-7-25 0-15 8-18 45-18 25 0 45 4 45 10 0 5-7 7-15 4-10-4-15 0-15 15s-6 21-23 21c-13 0-27-3-30-7z"/><path d="m2040 1339c0-6-23-9-62-7-35 1-94 1-133-1l-70-4 70-8c87-10 214-1 240 17 18 13 17 14-13 14-17 0-32-5-32-11z"/><path d="m2888 1313c7-3 16-2 19 1 4 3-2 6-13 5-11 0-14-3-6-6z"/><path d="m2990 1280c5-26 3-41-4-44-6-2 6-5 27-5 31-1 37 2 37 19 0 25-27 27-33 3-2-10-8 1-12 25-4 23-11 42-15 42s-4-18 0-40z"/><path d="m3104 1313c7-7 98-5 105 3 2 2-22 4-54 4s-55-3-51-7z"/><path d="m2910 1271c0-22 13-39 26-34 19 7 18 16-6 31-11 7-20 8-20 3z"/><path d="m2865 1260c-9-15 4-30 26-30 17 0 18 3 9 20-12 22-25 26-35 10z"/><path d="m3106 1245c-3-8-1-15 4-15 6 0 10 7 10 15s-2 15-4 15-6-7-10-15z"/><path d="m2854 1219c9-14 14-28 11-31s1-8 10-11c22-9 19 4-11 38-21 25-23 26-10 4z"/><path d="m2910 1090c0-5 5-10 10-10 6 0 10 5 10 10 0 6-4 10-10 10-5 0-10-4-10-10z"/><path d="m5780 1061c0-8 60-31 81-31 17 1-34 30-62 35-10 2-19 1-19-4z"/><path d="m5890 1011c8-5 35-28 59-50 50-46 75-56 32-13-15 15-32 35-37 44s-22 19-39 23c-21 4-26 3-15-4z"/><path d="m3778 933c7-3 16-2 19 1 4 3-2 6-13 5-11 0-14-3-6-6z"/><path d="m3330 920c-13-8-12-10 3-10 9 0 17 5 17 10 0 12-1 12-20 0z"/><path d="m3415 921c-3-5-1-12 5-16 5-3 10 1 10 9 0 18-6 21-15 7z"/><path d="m4885 900c-3-5-2-10 4-10 5 0 13 5 16 10 3 6 2 10-4 10-5 0-13-4-16-10z"/><path d="m5065 900c3-5 8-10 11-10 2 0 4 5 4 10 0 6-5 10-11 10-5 0-7-4-4-10z"/><path d="m6023 889c7-13 23-40 35-59 43-68 66-158 67-257 0-67 3-93 12-93 60 0-7 342-73 372-13 6-24 17-24 23 0 7-7 18-15 25-13 11-14 10-2-11z"/><path d="m4946 888c3-5 10-6 15-3 13 9 11 12-6 12-8 0-12-4-9-9z"/><path d="m4634 868c0-12 8-18 24-18 13 0 21 4 17 9-3 5 3 11 12 13 10 3 2 6-17 9-29 4-36 1-36-13z"/><path d="m3129 847c15-19 71-61 71-54 0 2-19 19-42 37-24 19-37 26-29 17z"/><path d="m4569 851c11-7 11-9 0-13-10-3-7-8 8-17 19-10 22-9 17 4-4 9-1 15 7 16 8 0 5 4-6 9-26 11-44 12-26 1z"/><path d="m4940 840c-9-6-10-10-3-10 6 0 15 5 18 10 8 12 4 12-15 0z"/><path d="m4640 820c0-5 5-10 11-10 5 0 7 5 4 10-3 6-8 10-11 10-2 0-4-4-4-10z"/><path d="m4978 793c7-3 16-2 19 1 4 3-2 6-13 5-11 0-14-3-6-6z"/><path d="m3240 750c6-11 13-20 16-20 2 0 0 9-6 20s-13 20-16 20c-2 0 0-9 6-20z"/><path d="m3290 711c0-5 5-13 10-16 6-3 10-2 10 4 0 5-4 13-10 16-5 3-10 2-10-4z"/><path d="m3498 563c5-9 22-17 38-19l28-3-32 19c-40 24-46 25-34 3z"/><path d="m4668 563c7-3 16-2 19 1 4 3-2 6-13 5-11 0-14-3-6-6z"/><path d="m3620 510c0-6 7-10 15-10s15 2 15 4-7 6-15 10c-8 3-15 1-15-4z"/><path d="m5025 511c-5-5-23-12-38-15-16-3-47-14-70-24-23-11-66-26-96-34l-54-14 92-2c101-2 152 12 171 48 14 25 10 56-5 41z"/><path d="m4447 499c7-7 15-10 18-7s-2 9-12 12c-14 6-15 5-6-5z"/><path d="m3675 490c-3-5-1-10 4-10 6 0 11 5 11 10 0 6-2 10-4 10-3 0-8-4-11-10z"/><path d="m6132 450c0-14 2-19 5-12 2 6 2 18 0 25-3 6-5 1-5-13z"/><path d="m3850 420c36-11 50-11 50 0 0 6-17 10-37 9-34-1-35-2-13-9z"/><path d="m4680 400-25-8 27-1c15-1 30 4 33 9 7 11 0 11-35 0z"/><path d="m6075 328c-9-24-42-72-73-108-70-82-77-89-67-70 5 9 4 12-1 7s-9-14-9-20c0-7-9-11-19-9s-15-1-12-6-12-17-34-27-38-20-36-22c2-3 22 5 45 17 23 11 41 17 41 13s6 1 13 12c8 10 19 15 25 11 16-10 42 4 42 23 0 32 29 62 55 55 13-3 33-3 44 1 19 6 21 14 20 81-1 41-5 76-9 79s-16-14-25-37z"/><path d="m5728 53c7-3 16-2 19 1 4 3-2 6-13 5-11 0-14-3-6-6z"/></g></svg>