<?xml version="1.0" standalone="no"?>
<!DOCTYPE svg PUBLIC "-//W3C//DTD SVG 20010904//EN"
 "http://www.w3.org/TR/2001/REC-SVG-20010904/DTD/svg10.dtd">
<svg version="1.0" xmlns="http://www.w3.org/2000/svg"
 width="600.000000pt" height="268.000000pt" viewBox="0 0 600.000000 268.000000"
 preserveAspectRatio="xMidYMid meet">

<g transform="translate(0.000000,268.000000) scale(0.100000,-0.100000)"
fill="#000000" stroke="none">
<path d="M1475 1614 c-90 -23 -116 -38 -169 -95 -70 -75 -91 -137 -84 -248 6
-91 28 -140 91 -198 58 -54 90 -69 170 -84 53 -10 81 -10 135 0 72 13 151 44
164 64 4 7 8 57 8 112 0 107 4 121 35 126 11 3 21 12 23 22 3 15 -8 17 -123
17 -115 0 -126 -2 -123 -17 2 -11 14 -19 31 -21 19 -2 31 -11 38 -28 11 -30
12 -174 1 -191 -12 -19 -98 -36 -146 -29 -130 20 -205 157 -176 325 14 86 50
139 112 170 91 43 192 18 239 -60 41 -68 45 -73 62 -66 15 5 16 19 11 99 -4
51 -10 97 -15 102 -5 6 -17 2 -29 -9 -19 -17 -26 -18 -68 -6 -53 14 -157 22
-187 15z"/>
<path d="M3873 1601 c-64 -30 -99 -100 -87 -175 8 -49 63 -106 159 -163 84
-50 113 -75 121 -108 9 -35 -2 -71 -29 -96 -18 -17 -31 -20 -73 -17 -65 6
-107 35 -139 98 -27 54 -42 67 -57 52 -7 -7 -6 -39 3 -104 12 -77 17 -93 33
-96 10 -2 22 1 26 8 6 9 25 8 82 -5 59 -13 83 -14 123 -5 92 21 145 83 145
170 0 75 -37 118 -185 212 -38 25 -77 54 -86 64 -48 56 -19 124 52 124 22 0
53 -7 69 -15 35 -18 76 -70 85 -107 5 -19 14 -28 27 -28 19 0 20 4 14 88 -10
128 -18 142 -57 106 -17 -15 -22 -15 -65 0 -62 21 -109 20 -161 -3z"/>
<path d="M4554 1600 c-53 -26 -84 -81 -84 -147 0 -70 31 -110 136 -174 122
-75 144 -97 144 -148 0 -57 -33 -91 -90 -91 -66 0 -127 43 -164 117 -18 37
-34 49 -46 37 -12 -12 13 -191 29 -207 10 -9 15 -8 26 7 10 14 21 17 42 12
109 -24 126 -25 176 -14 38 8 62 21 90 48 37 37 37 39 37 117 0 79 0 80 -37
117 -21 20 -75 60 -121 88 -46 29 -92 63 -103 76 -25 32 -24 77 2 103 17 17
30 20 69 17 61 -6 94 -31 125 -95 19 -38 31 -53 46 -53 15 0 19 5 15 18 -2 9
-8 54 -11 100 -8 88 -24 114 -51 78 -11 -16 -16 -16 -65 -2 -70 21 -116 20
-165 -4z"/>
<path d="M2082 1593 c2 -9 17 -20 34 -25 20 -5 34 -16 38 -30 3 -13 6 -102 6
-198 0 -97 5 -193 11 -215 7 -23 28 -57 53 -81 53 -54 128 -72 224 -56 83 14
133 47 163 109 22 44 24 64 29 248 l5 200 38 18 c20 10 37 25 37 33 0 12 -20
14 -112 12 -91 -2 -113 -6 -113 -18 0 -8 14 -18 32 -23 17 -5 35 -17 39 -26
12 -30 17 -285 6 -355 -9 -55 -17 -76 -40 -99 -35 -35 -91 -49 -150 -37 -54
10 -90 44 -102 96 -12 49 -13 384 -1 402 4 7 21 16 37 21 16 4 30 15 32 24 3
15 -11 17 -133 17 -123 0 -136 -2 -133 -17z"/>
<path d="M2955 1600 c-9 -15 3 -30 25 -30 47 0 50 -17 50 -261 0 -133 -4 -238
-10 -249 -5 -10 -24 -21 -40 -25 -22 -5 -30 -12 -28 -23 3 -15 28 -17 233 -20
127 -1 239 0 250 2 16 4 25 21 38 73 9 37 17 76 17 86 0 30 -28 18 -57 -25
-38 -57 -71 -71 -178 -76 -72 -3 -93 -1 -103 11 -9 10 -12 47 -10 118 l3 104
75 3 c90 3 123 -11 130 -53 4 -21 12 -31 28 -33 22 -3 22 -2 22 113 0 115 0
116 -22 113 -16 -2 -24 -11 -26 -30 -5 -43 -26 -53 -121 -53 l-86 0 -3 103 -3
102 106 0 c59 0 115 -4 125 -10 10 -5 24 -26 30 -45 8 -24 18 -35 31 -35 18 0
20 6 17 73 l-3 72 -242 3 c-156 1 -244 -1 -248 -8z"/>
</g>
</svg>
