<svg width="140" height="138" viewBox="0 0 140 138" fill="none" xmlns="http://www.w3.org/2000/svg">
<path d="M131.55 30.57C126.87 25.79 108.55 11.57 99.09 6.92C89.9786 2.41964 79.9621 0.0531547 69.8 0C59.6412 0.0543215 49.6282 2.42079 40.52 6.92C31.11 11.53 12.75 25.79 8.05998 30.57C2.84699 36.0302 -0.042665 43.301 -2.29666e-05 50.85V87.09C-0.042665 94.639 2.84699 101.91 8.05998 107.37C12.74 112.15 31.06 126.37 40.52 131.02C49.6292 135.517 59.6416 137.883 69.8 137.94C79.9636 137.881 89.9802 135.507 99.09 131C108.51 126.39 126.87 112.13 131.55 107.35C136.76 101.888 139.649 94.6184 139.61 87.07V50.85C139.652 43.3012 136.762 36.0308 131.55 30.57ZM15.91 38.26C20.08 34 37.3 20.73 45.35 16.78C52.957 13.0264 61.3174 11.05 69.8 11C78.2875 11.0547 86.6515 13.038 94.26 16.8C102.26 20.75 119.53 34.02 123.7 38.28C126.912 41.6794 128.68 46.1931 128.63 50.87V57.19C128.628 59.903 128.012 62.5804 126.83 65.0221C125.647 67.4637 123.927 69.6064 121.8 71.29C102.18 86.82 88.06 97.32 83.3 99.84C79.1293 101.971 74.5031 103.055 69.82 103C65.0867 102.976 60.4215 101.871 56.18 99.77C51.63 97.53 36.81 86.12 34.95 84.35C34.9024 84.305 34.8646 84.2507 34.8388 84.1905C34.813 84.1303 34.7998 84.0655 34.8 84C34.8015 83.9269 34.8204 83.8552 34.8552 83.7908C34.89 83.7265 34.9396 83.6713 35 83.63L45.23 75.89L56.85 84.68C60.5825 87.4902 65.1278 89.01 69.8 89.01C74.4721 89.01 79.0175 87.4902 82.75 84.68L103.49 69L111 63.3C112.851 61.9509 114.275 60.097 115.1 57.96C115.873 55.8737 116.024 53.6083 115.536 51.4378C115.048 49.2673 113.941 47.2847 112.35 45.73C110.35 43.82 94.35 31.3 88.35 28.32C82.5772 25.4835 76.2319 24.0058 69.8 24C63.3204 23.9418 56.9236 25.4586 51.16 28.42C44.29 32 25.62 46.46 11 58.06V50.85C10.9394 46.1749 12.7003 41.6597 15.91 38.26ZM54.34 69L63.48 62.08C65.3046 60.7112 67.524 59.9712 69.805 59.9712C72.0859 59.9712 74.3054 60.7112 76.13 62.08L85.27 69L76.13 75.91C74.3087 77.2866 72.088 78.0313 69.805 78.0313C67.522 78.0313 65.3013 77.2866 63.48 75.91L54.34 69ZM123.7 99.68C119.53 103.94 102.31 117.21 94.26 121.16C86.6548 124.936 78.2906 126.933 69.8 127C61.3158 126.944 52.9554 124.961 45.35 121.2C37.3 117.2 20.08 103.98 15.91 99.72C12.6906 96.3103 10.929 91.7788 11 87.09V80.77C11.0022 78.057 11.6177 75.3796 12.8004 72.9379C13.9832 70.4963 15.7025 68.3536 17.83 66.67C37.44 51.12 51.56 40.67 56.33 38.1C63.87 34.1 74.61 33.82 83.47 38.18C88 40.42 102.82 51.83 104.68 53.6C104.728 53.6498 104.765 53.7097 104.788 53.7754C104.81 53.8411 104.818 53.911 104.81 53.98C104.81 54.0509 104.792 54.1206 104.759 54.1833C104.726 54.246 104.678 54.2997 104.62 54.34L94.38 62.08L82.75 53.29C79.0208 50.472 74.4742 48.9473 69.8 48.9473C65.1258 48.9473 60.5792 50.472 56.85 53.29L36.12 69L28.63 74.66C26.7794 76.0099 25.3561 77.8636 24.53 80C23.7528 82.0865 23.598 84.3537 24.0843 86.5264C24.5707 88.6992 25.6774 90.684 27.27 92.24C29.27 94.15 45.27 106.67 51.27 109.65C57.0305 112.494 63.3656 113.982 69.79 114C76.2662 114.057 82.6594 112.54 88.42 109.58C95.28 105.94 113.96 91.51 128.6 79.91V87.12C128.65 91.7824 126.894 96.2834 123.7 99.68Z" fill="#494949"/>
</svg>
